<svg id="Camada_1" data-name="Camada 1" xmlns="http://www.w3.org/2000/svg" viewBox="0 0 375.97 123.12"><defs><style>.cls-1{fill:#3763ac;}.cls-2{fill:#20b2aa;}</style></defs><path class="cls-1" d="M95.26,107.82c3,0,4.93,2.09,4.93,5.17v.17c0,.44-.15.62-.64.62H92a2.58,2.58,0,0,0,0,.38,3.33,3.33,0,0,0,3.46,2.8,3.37,3.37,0,0,0,3.22-1.71s1.11.15,1.11,1a2.08,2.08,0,0,1-1.13,1.5,6.1,6.1,0,0,1-3.25.83A5.11,5.11,0,0,1,90,113.26,5.2,5.2,0,0,1,95.26,107.82Zm0,1.6A3.26,3.26,0,0,0,92,112.34h6.14A2.81,2.81,0,0,0,95.24,109.42Z"/><path class="cls-1" d="M105.81,113.22c0-3.24,2-5.4,4.86-5.4a4.12,4.12,0,0,1,3.52,1.69v-5.6a1.15,1.15,0,0,1,.77-.23c.66,0,1.35.34,1.35,1.81v11.94c0,.76-.39,1-.94,1h-.22c-.55,0-.93-.24-.93-1v-.79a4.14,4.14,0,0,1-3.61,2C107.86,118.62,105.81,116.46,105.81,113.22Zm8.41-1.54a3.21,3.21,0,0,0-3.16-2.11c-1.92,0-3.2,1.45-3.2,3.65s1.32,3.65,3.15,3.65a3.1,3.1,0,0,0,3.21-3Z"/><path class="cls-1" d="M132.55,109v9.2c0,.07-.34.24-.75.24a1.2,1.2,0,0,1-1.26-1,3.14,3.14,0,0,1-.08-.66A4,4,0,0,1,127,118.6c-2.71,0-4-1.84-4-4.4V109c0-.76.39-1,.92-1h.24c.55,0,.94.23.94,1v5c0,1.77.89,2.81,2.45,2.81a3.09,3.09,0,0,0,2.82-1.81v-6c0-.76.38-1,.92-1h.23C132.17,108,132.55,108.2,132.55,109Z"/><path class="cls-1" d="M143.93,107.82a5.14,5.14,0,0,1,3.35,1.07,2.55,2.55,0,0,1,1,1.77c0,.87-1.19,1-1.26.94a3,3,0,0,0-3.09-2,3.64,3.64,0,0,0,0,7.26,3.06,3.06,0,0,0,3.09-2c.07-.1,1.26,0,1.26,1a2.52,2.52,0,0,1-1.06,1.75,5.08,5.08,0,0,1-3.33,1.07,5.4,5.4,0,0,1,0-10.8Z"/><path class="cls-1" d="M160.79,112.17h.27V112a2.23,2.23,0,0,0-2.54-2.41,3.1,3.1,0,0,0-2.94,1.75s-1.3,0-1.3-1A1.87,1.87,0,0,1,155,109a5.46,5.46,0,0,1,3.69-1.17c2.91,0,4.49,1.49,4.49,4.1v6.29c0,.11-.39.24-.77.24a1.15,1.15,0,0,1-1.22-.94,3.38,3.38,0,0,1-.08-.7,4.45,4.45,0,0,1-3.7,1.77c-2.19,0-3.5-1.18-3.5-2.93C153.89,113.28,156.16,112.26,160.79,112.17Zm.27,1.33-.57,0c-3,.11-4.53.66-4.53,2,0,.92.73,1.49,1.95,1.49a2.87,2.87,0,0,0,3.15-2.77Z"/><path class="cls-1" d="M171.59,121.5a.76.76,0,0,1,.68-.85c.26.23.73.81,1.37.81s1.17-.3,1.17-1-.92-1.6-1.71-2a5.42,5.42,0,0,1,1.54-10.59,5.1,5.1,0,0,1,3.35,1.07,2.53,2.53,0,0,1,1,1.77c0,.87-1.2,1-1.26.94a3.06,3.06,0,0,0-3.1-2,3.64,3.64,0,0,0,0,7.26,3.07,3.07,0,0,0,3.1-2c.06-.1,1.26,0,1.26,1a2.43,2.43,0,0,1-.94,1.65,4.48,4.48,0,0,1-2.33,1.06,3.6,3.6,0,0,1-.6.09,3,3,0,0,1,1.28,2.37c0,1.51-1.3,2.15-2.58,2.15S171.59,122.23,171.59,121.5Z"/><path class="cls-1" d="M191.52,112.17h.28V112a2.23,2.23,0,0,0-2.54-2.41,3.09,3.09,0,0,0-2.94,1.75s-1.31,0-1.31-1a1.89,1.89,0,0,1,.71-1.28,5.44,5.44,0,0,1,3.69-1.17c2.9,0,4.48,1.49,4.48,4.1v6.29c0,.11-.38.24-.77.24a1.15,1.15,0,0,1-1.21-.94,3.32,3.32,0,0,1-.09-.7,4.43,4.43,0,0,1-3.69,1.77c-2.2,0-3.5-1.18-3.5-2.93C184.63,113.28,186.89,112.26,191.52,112.17Zm-5.23-6.27a.77.77,0,0,1-.21-.58,2,2,0,0,1,1.75-2.13,2.73,2.73,0,0,1,1.41.49,7.31,7.31,0,0,1,1.47,1.28c.24-.77.75-1.64,1.24-1.64a.73.73,0,0,1,.79.81,2,2,0,0,1-1.75,2.11,2.54,2.54,0,0,1-1.43-.47,8.84,8.84,0,0,1-1.45-1.3c-.26.77-.75,1.64-1.24,1.64A.79.79,0,0,1,186.29,105.9Zm5.51,7.6-.58,0c-3,.11-4.52.66-4.52,2,0,.92.73,1.49,1.94,1.49a2.87,2.87,0,0,0,3.16-2.77Z"/><path class="cls-1" d="M205.44,107.82a5.4,5.4,0,1,1-5.4,5.38A5.18,5.18,0,0,1,205.44,107.82Zm0,1.73a3.68,3.68,0,1,0,3.41,3.69A3.45,3.45,0,0,0,205.42,109.55Z"/><path class="cls-1" d="M224.33,113.22c0-3.24,2-5.4,4.86-5.4a4.15,4.15,0,0,1,3.53,1.69v-5.6a1.12,1.12,0,0,1,.77-.23c.66,0,1.34.34,1.34,1.81v11.94c0,.76-.38,1-.94,1h-.21c-.56,0-.94-.24-.94-1v-.79a4.12,4.12,0,0,1-3.61,2C226.38,118.62,224.33,116.46,224.33,113.22Zm8.41-1.54a3.2,3.2,0,0,0-3.16-2.11c-1.92,0-3.2,1.45-3.2,3.65s1.32,3.65,3.16,3.65a3.09,3.09,0,0,0,3.2-3Z"/><path class="cls-1" d="M242.9,103.55a1.23,1.23,0,1,1-1.28,1.24A1.16,1.16,0,0,1,242.9,103.55ZM241.79,109c0-.76.4-1,1-1H243c.56,0,.94.23.94,1v8.44c0,.76-.38,1-.94,1h-.21c-.56,0-1-.24-1-1Z"/><path class="cls-1" d="M249.54,120c0-1.5,1.4-2.5,3.26-2.82a1.17,1.17,0,0,1-.4-1,1.5,1.5,0,0,1,.57-1.11,3.57,3.57,0,0,1-2.69-3.41c0-2.16,1.86-3.89,4.4-3.89a5.17,5.17,0,0,1,2.45.62l.56-1a1.34,1.34,0,0,1,1.22-.81,1.13,1.13,0,0,1,1.08.89l-1.75,1.82a3.46,3.46,0,0,1,.9,2.28c0,2.16-1.84,3.74-4.44,3.74h-.38a.55.55,0,0,0-.11.36c0,.66,1,.72,2.77,1.17,1.46.39,3,1.11,3,2.8,0,1.94-2,3.14-5.38,3.14S249.54,121.93,249.54,120Zm8.38-.24c0-.81-1-1.11-2.09-1.38l-1.07-.26c-1.75.11-3.2.73-3.2,1.81,0,.92,1.05,1.43,3.08,1.43S257.92,120.8,257.92,119.77Zm-.83-8.11a2.27,2.27,0,0,0-2.43-2.32,2.23,2.23,0,0,0-2.37,2.32,2.4,2.4,0,0,0,4.8,0Z"/><path class="cls-1" d="M266.78,103.55a1.23,1.23,0,1,1-1.28,1.24A1.16,1.16,0,0,1,266.78,103.55ZM265.67,109c0-.76.41-1,1-1h.22c.55,0,.93.23.93,1v8.44c0,.76-.38,1-.93,1h-.22c-.55,0-1-.24-1-1Z"/><path class="cls-1" d="M275.53,115.23v-5.42h-.74c-.67,0-.92-.28-.92-.79v-.15c0-.52.25-.79.92-.79h.74V106.5c0-.73.36-1,.94-1h.21c.56,0,.92.22.92,1v1.58h2.33c.66,0,.9.25.9.76V109c0,.54-.26.82-.92.82h-2.33V115c0,1.28.36,1.9,1.37,1.9a1.75,1.75,0,0,0,1.45-.72c.06-.07.6.23.6.89a1.27,1.27,0,0,1-.45.94,2.91,2.91,0,0,1-1.94.62C276.49,118.62,275.53,117.45,275.53,115.23Z"/><path class="cls-1" d="M293.25,112.17h.28V112a2.23,2.23,0,0,0-2.55-2.41A3.1,3.1,0,0,0,288,111.3s-1.3,0-1.3-1a1.87,1.87,0,0,1,.7-1.28,5.46,5.46,0,0,1,3.69-1.17c2.91,0,4.49,1.49,4.49,4.1v6.29c0,.11-.39.24-.77.24a1.15,1.15,0,0,1-1.22-.94,3.38,3.38,0,0,1-.08-.7,4.45,4.45,0,0,1-3.7,1.77c-2.19,0-3.5-1.18-3.5-2.93C286.35,113.28,288.62,112.26,293.25,112.17Zm.28,1.33-.58,0c-3,.11-4.53.66-4.53,2,0,.92.73,1.49,1.95,1.49a2.88,2.88,0,0,0,3.16-2.77Z"/><path class="cls-1" d="M302.47,117.43V103.91a1.12,1.12,0,0,1,.77-.23c.66,0,1.34.34,1.34,1.81v11.94c0,.76-.38,1-.94,1h-.21C302.87,118.43,302.47,118.19,302.47,117.43Z"/><path class="cls-2" d="M360.85,44a7.58,7.58,0,0,1,7.56-7.56h0A7.58,7.58,0,0,1,376,44h0a7.58,7.58,0,0,1-7.56,7.56h0A7.58,7.58,0,0,1,360.85,44Zm-23.66,0a7.58,7.58,0,0,1,7.56-7.56h0A7.53,7.53,0,0,1,352.31,44h0a7.53,7.53,0,0,1-7.56,7.56h0A7.58,7.58,0,0,1,337.19,44Zm-23.58,0a7.53,7.53,0,0,1,7.56-7.56h0A7.58,7.58,0,0,1,328.72,44h0a7.58,7.58,0,0,1-7.55,7.56h0A7.53,7.53,0,0,1,313.61,44Z"/><path class="cls-1" d="M8.77,88a8.73,8.73,0,0,1-4.83-1.45c-2-1.39-3.2-2.82-3.5-4.26a18.59,18.59,0,0,1-.44-3A9,9,0,0,1,1.45,74.5l37.49-57H8.77a8.41,8.41,0,0,1-6.24-2.58A8.53,8.53,0,0,1,0,8.69,8.43,8.43,0,0,1,2.53,2.53,8.52,8.52,0,0,1,8.77,0H55.11a8.57,8.57,0,0,1,6.2,2.53,8.35,8.35,0,0,1,2.57,6.16A8.29,8.29,0,0,1,62,14.16l-37,56.32H55.11a8.77,8.77,0,0,1,0,17.54Z"/><path class="cls-2" d="M75,75.11A42.35,42.35,0,0,1,62,44,42.49,42.49,0,0,1,75,12.87,42.51,42.51,0,0,1,106.05,0a42.39,42.39,0,0,1,31.1,12.91A42.43,42.43,0,0,1,150.06,44a8.5,8.5,0,0,1-2.54,6.19,8.29,8.29,0,0,1-6.15,2.58,6.57,6.57,0,0,1-1.45-.16q-.64.16-34.84.16a8.4,8.4,0,0,1-6.23-2.58,8.82,8.82,0,0,1,0-12.39,8.43,8.43,0,0,1,6.23-2.57h26a26.34,26.34,0,0,0-6.27-10,26.44,26.44,0,0,0-37.5,0A25.6,25.6,0,0,0,79.5,44a26.56,26.56,0,0,0,26.55,26.47,26.43,26.43,0,0,0,12.79-3.22A8.8,8.8,0,0,1,123,66.13a8.38,8.38,0,0,1,7.64,4.59,9.26,9.26,0,0,1,1,4.18,8.3,8.3,0,0,1-4.5,7.65A43.76,43.76,0,0,1,75,75.11Z"/><path class="cls-1" d="M204.78,85l-24.7-27.92-8,8.93v13.2a8.49,8.49,0,0,1-2.53,6.19A8.31,8.31,0,0,1,163.42,88a8.4,8.4,0,0,1-6.23-2.58,8.5,8.5,0,0,1-2.54-6.19V8.69a8.4,8.4,0,0,1,2.54-6.16A8.51,8.51,0,0,1,163.42,0a8.41,8.41,0,0,1,6.16,2.53,8.39,8.39,0,0,1,2.53,6.16V39.83L204.78,3C206.49,1.15,208,.2,209.2.12L211.3,0a9.27,9.27,0,0,1,5.87,2.17q2.66,2.58,2.77,4.47c.08,1.26.13,2,.13,2.21a8.53,8.53,0,0,1-2.18,5.63L191.75,44l26.14,29.45a8.85,8.85,0,0,1,2.18,5.71,9,9,0,0,1-2.9,6.68A9.32,9.32,0,0,1,211.3,88,8.71,8.71,0,0,1,204.78,85Z"/><path class="cls-1" d="M289.75,85.44a8.6,8.6,0,0,1-2.58-6.35,43.86,43.86,0,0,1-57.6-4,42.32,42.32,0,0,1-13-31.1,42.36,42.36,0,0,1,13-31.06v-.08a44.05,44.05,0,0,1,57.6-4,8.51,8.51,0,0,1,2.58-6.32,8.85,8.85,0,0,1,12.39,0,8.35,8.35,0,0,1,2.57,6.16V79.25a8.75,8.75,0,0,1-15,6.19ZM279.37,62.76a26.76,26.76,0,0,0,7.8-18.27,26.16,26.16,0,0,0-7.8-19.23,26.38,26.38,0,0,0-37.45,0A25.65,25.65,0,0,0,234.15,44a25.51,25.51,0,0,0,7.77,18.71,26.52,26.52,0,0,0,37.45,0Z"/></svg>